<svg width="74" height="54" viewBox="0 0 74 54" fill="none" xmlns="http://www.w3.org/2000/svg">
<path d="M54.6233 1.55078C48.6347 1.55078 42.6462 2.7127 36.9973 5.03103C31.3539 2.7127 25.3653 1.55078 19.3767 1.55078C13.3881 1.55078 7.25707 2.74023 1.54791 5.11363V52.4494C7.25707 50.0705 13.3169 48.8866 19.3767 48.8866C25.4365 48.8866 31.2059 50.021 36.7946 52.2842V52.4494C36.8603 52.4219 36.9315 52.3944 36.9973 52.3668C37.063 52.3944 37.1343 52.4219 37.2 52.4494V52.2842C42.7886 50.021 48.706 48.8866 54.6179 48.8866C60.5297 48.8866 66.7375 50.076 72.4466 52.4494V5.11363C66.7375 2.73473 60.6777 1.55078 54.6179 1.55078H54.6233Z" stroke="white" stroke-width="2" stroke-linecap="round" stroke-linejoin="round"/>
<path d="M37.0029 11.5566V52.4496" stroke="white" stroke-width="2" stroke-linecap="round" stroke-linejoin="round"/>
</svg>
