<svg width="17" height="18" viewBox="0 0 17 18" fill="none" xmlns="http://www.w3.org/2000/svg">
<path d="M2.01624 13.4358H12.0577L14.3088 1.05457H16.2217" stroke="black" stroke-linecap="round" stroke-linejoin="round"/>
<path d="M3.9664 16.9454C4.60335 16.9454 5.1197 16.429 5.1197 15.7921C5.1197 15.1551 4.60335 14.6388 3.9664 14.6388C3.32946 14.6388 2.81311 15.1551 2.81311 15.7921C2.81311 16.429 3.32946 16.9454 3.9664 16.9454Z" stroke="black" stroke-linecap="round" stroke-linejoin="round"/>
<path d="M10.3219 16.9454C10.9588 16.9454 11.4752 16.429 11.4752 15.7921C11.4752 15.1551 10.9588 14.6388 10.3219 14.6388C9.68493 14.6388 9.16858 15.1551 9.16858 15.7921C9.16858 16.429 9.68493 16.9454 10.3219 16.9454Z" stroke="black" stroke-linecap="round" stroke-linejoin="round"/>
<path d="M13.2933 3.70996H0.745728L1.98219 10.846H12.0902L13.2989 3.70996H13.2933Z" fill="black" stroke="black" stroke-linecap="round" stroke-linejoin="round"/>
</svg>
