<svg width="87" height="56" viewBox="0 0 87 56" fill="none" xmlns="http://www.w3.org/2000/svg">
<path d="M82.9089 30.5362C82.7437 30.263 82.5722 29.9771 82.4006 29.6658C82.083 29.1003 81.7653 28.484 81.4603 27.8233C81.1554 27.1689 80.8567 26.4763 80.6026 25.7521C80.3421 25.0341 80.1261 24.2844 79.9736 23.5157C79.8973 23.1344 79.8339 22.7469 79.7957 22.3593C79.7576 21.9654 79.7321 21.5779 79.7321 21.1839C79.7194 20.3961 79.7639 19.6083 79.8084 18.8205C79.8274 18.4266 79.8466 18.039 79.8656 17.6514C79.872 17.2639 79.8783 16.8827 79.8783 16.5015C79.8783 16.3109 79.872 16.1266 79.8593 15.9424C79.8465 15.7581 79.8338 15.5675 79.8211 15.396C79.7957 15.0338 79.7321 14.6717 79.6495 14.3477C79.5606 14.0046 79.4589 13.6806 79.3382 13.3756C79.0015 11.1582 77.9596 9.09974 75.3229 8.89643C73.0166 8.71853 70.5388 5.07167 65.9452 6.41224C62.7304 7.35255 61.5487 7.87988 56.4469 8.64229C48.3526 9.8558 43.3652 10.4276 34.7309 8.69947C33.2251 8.40086 31.7384 8.11496 30.239 7.86082C28.3775 7.5495 25.9377 8.73759 23.7776 8.30556C23.2502 8.19755 24.146 7.70834 23.606 7.181C23.2312 6.81251 22.7483 6.5266 22.2527 6.36141C21.1218 5.98021 20.3022 6.34871 19.2285 6.62826C18.3644 6.85698 17.8435 6.69814 17.3733 5.91032C17.2336 5.67524 16.846 5.05261 16.541 4.53798C16.8396 4.43633 17.9769 4.00429 18.7075 3.00681C19.7368 1.58999 18.7647 -0.131785 18.644 0.00798988C18.5169 0.147765 18.6948 0.376488 18.1992 1.41845C17.5702 2.75267 15.2767 2.82891 14.5905 2.8162C13.9107 2.61289 13.0784 2.54301 12.0682 2.6256C10.8674 2.7209 9.76825 2.67007 9.00584 3.29906C8.23708 3.00045 7.1125 2.44135 6.68047 1.55187C6.19761 0.554384 5.77195 0.351075 6.22304 2.46676C6.47082 3.61673 7.32221 4.40456 7.91943 4.83024C7.50011 5.54182 7.06171 6.21528 6.24212 6.27246C5.41617 6.32965 4.63472 5.6943 3.79606 5.64983C2.97012 5.60536 2.13779 5.84679 1.46433 6.32965C-0.492525 7.74646 1.22928 8.91549 2.60798 9.90662C4.23445 11.0757 5.42252 10.669 7.26501 10.2434C7.51915 11.8889 7.77961 13.5281 8.03375 15.1736C8.18623 16.1647 8.46579 17.2131 8.35778 18.2233C8.28789 19.3224 7.58901 20.4533 8.75169 21.1839C9.56493 21.6986 10.7213 21.4889 11.6362 21.4953C12.1953 21.4953 13.1927 21.5334 13.7328 21.5397C14.2855 21.5397 14.006 21.743 14.5143 22.461C16.0073 24.5576 17.5957 29.3799 19.4128 31.1652C20.3658 34.1322 22.3735 37.7156 25.6963 38.7321C25.6264 40.2061 26.0648 41.5911 26.5476 42.9698C27.1576 44.717 27.6023 45.2444 27.7675 47.0996C27.9137 48.7642 28.028 50.505 27.5833 52.1378C27.4244 52.716 27.2148 53.3831 26.8082 53.8342C26.4651 54.2154 25.9377 54.4187 25.6073 54.8253C24.8386 55.7656 25.1626 55.9689 26.1792 55.9689H28.1678C28.8476 55.9689 29.5846 56.0388 30.2644 55.9689C31.2746 55.8673 31.2873 55.251 31.2174 54.2662C30.887 53.1861 31.5161 53.8088 31.9036 53.2878C32.2721 52.7986 31.5351 52.0171 31.5351 50.4796C31.4271 48.4655 31.2873 48.2178 31.8274 46.2419C32.4627 43.9165 33.3521 41.5911 33.5872 39.1832C33.6952 38.0968 33.6 36.9341 34.5339 36.1717C35.3599 35.4855 36.5225 35.4474 37.52 35.6507C38.778 35.9048 39.9216 36.5656 41.1669 36.896C42.3804 37.22 44.7311 37.3598 45.9827 37.4042C48.4542 37.4805 50.7351 37.0167 53.0859 36.2543C54.2804 35.8667 55.4748 35.5236 56.682 35.1678C57.4761 34.9328 58.48 34.4308 59.3123 34.7676C59.2424 34.7358 59.1725 34.7104 59.0962 34.6977C60.5067 34.9645 61.6503 36.1653 62.9909 36.6799C63.658 36.9404 64.4776 36.9087 65.1003 37.2454C66.5361 38.0205 66.911 41.2163 67.2414 42.6776C67.7433 44.9267 67.6607 46.4007 67.1524 48.6434C66.7839 50.2636 66.1231 51.979 64.9096 53.1417C64.5475 53.4848 63.5754 54.0883 63.6897 54.6983C63.785 55.2192 63.677 54.9143 64.179 55.0477C64.9986 55.2701 66.9618 55.2701 67.7814 55.0477C68.2579 54.9143 68.099 55.143 68.4612 54.6474C68.7026 54.3171 68.6582 54.2853 68.6709 53.9231C68.6836 53.6754 68.6709 53.5991 68.6454 53.2306C68.5247 52.1442 68.8805 52.4746 69.0266 52.411C69.2617 52.3157 68.8995 51.8392 70.5197 47.0741C70.85 46.0957 70.8691 46.1211 71.0089 45.0982C71.136 44.1897 71.5362 43.0207 71.4854 42.1121C72.2415 44.3358 72.6989 45.4858 72.5592 47.8429C72.4448 49.8188 71.5998 51.5025 71.3076 53.3895C71.1106 54.0883 70.0368 54.2853 69.6747 54.9651C69.1855 55.8863 69.6937 55.8038 70.4562 55.8038C71.4155 55.8038 72.4893 55.9435 73.4232 55.7656C74.4843 55.5623 74.5287 54.819 74.4588 53.8278C74.4652 53.4085 74.5224 53.1353 74.5224 53.1417C74.6748 53.0845 74.7955 53.0464 74.9036 52.9193C75.0433 52.716 74.8083 52.8685 75.2721 50.3398C75.7295 47.8239 75.6914 47.1059 75.9455 45.435C76.187 43.8593 76.3395 43.3638 76.6825 41.8072C77.0447 40.187 77.3877 39.0688 76.7206 37.544C73.582 30.3646 77.3877 25.7775 79.1159 18.4965C79.2302 18.0136 79.3509 17.2957 79.4145 16.4697C79.4145 16.4951 79.4145 16.5205 79.4145 16.5523C79.4145 16.9208 79.4082 17.2957 79.3891 17.6769C79.3764 18.0581 79.3637 18.4456 79.3509 18.8332C79.3255 19.6147 79.3065 20.4152 79.3382 21.2157C79.3509 21.616 79.3891 22.0162 79.4399 22.4102C79.4907 22.8104 79.5669 23.2043 79.6495 23.5919C79.8274 24.367 80.0689 25.1231 80.3421 25.8474C80.8949 27.2959 81.5938 28.6365 82.2545 29.7547C82.4324 30.0533 82.6103 30.3392 82.7755 30.5997C82.6865 31.1207 82.2672 34.4626 86.416 35.3648C86.416 35.3648 84.9865 30.8856 82.9026 30.5425L82.9089 30.5362Z" fill="black"/>
</svg>
