<svg width="65" height="52" viewBox="0 0 65 52" fill="none" xmlns="http://www.w3.org/2000/svg">
<g clip-path="url(#clip0_1_3618)">
<path d="M62.3838 9.76744C60.9429 9.76744 59.7675 10.9749 59.7675 12.468C59.7675 13.2226 60.0654 13.9018 60.5475 14.3923C57.6821 17.2923 52.2383 22.3591 50.0392 21.405C48.1 20.5588 47.6558 16.6993 47.5908 14.0096C47.6071 14.0096 47.6179 14.0096 47.6342 14.0096C49.0804 14.0096 50.2504 12.8022 50.2504 11.3091C50.2504 9.81596 49.0804 8.60853 47.6342 8.60853C46.1879 8.60853 45.0179 9.81596 45.0179 11.3091C45.0179 12.4841 45.7492 13.4867 46.7675 13.8533C45.5975 16.5269 43.1275 20.0952 38.6588 18.09C35.1975 16.543 33.6538 10.0262 32.9821 5.34742C34.19 5.11025 35.1054 4.01602 35.1054 2.6954C35.1054 1.2023 33.9354 -0.00512695 32.4946 -0.00512695C31.0538 -0.00512695 29.8783 1.2023 29.8783 2.6954C29.8783 4.01063 30.7938 5.11025 32.0017 5.34742C31.33 10.0262 29.7863 16.5376 26.325 18.09C21.8562 20.0898 19.3808 16.5269 18.2163 13.8533C19.2346 13.4867 19.9658 12.4841 19.9658 11.3091C19.9658 9.81596 18.7958 8.60853 17.3496 8.60853C15.9033 8.60853 14.7333 9.81596 14.7333 11.3091C14.7333 12.8022 15.9033 14.0096 17.3496 14.0096C17.3658 14.0096 17.3767 14.0096 17.3929 14.0096C17.3279 16.7047 16.8838 20.5642 14.9446 21.405C12.7508 22.3591 7.30708 17.2923 4.44167 14.3923C4.92375 13.9018 5.22167 13.2226 5.22167 12.468C5.22167 10.9749 4.05167 9.76744 2.60542 9.76744C1.15917 9.76744 0 10.9749 0 12.4626C0 13.9503 1.17 15.1631 2.61625 15.1631C3.0225 15.1631 3.40708 15.0661 3.74833 14.8936C6.10458 20.0629 11.2829 43.8717 10.7846 48.7445C10.7846 48.7445 9.50083 50.2322 10.7846 51.2295C12.0683 52.2213 32.5 51.9733 32.5 51.9733C32.5 51.9733 52.9317 52.2213 54.2154 51.2295C55.4992 50.2322 54.2154 48.7445 54.2154 48.7445C53.7171 43.8717 58.8954 20.0629 61.2517 14.8936C61.5983 15.0661 61.9775 15.1631 62.3838 15.1631C63.83 15.1631 65 13.9557 65 12.4626C65 10.9695 63.83 9.76205 62.3838 9.76205V9.76744Z" fill="#B59179"/>
<path d="M34.2907 26.632C33.8987 26.352 33.1801 26.2027 32.1347 26.184H32.0787C31.0521 26.184 29.8014 26.7627 28.3267 27.92L27.5147 26.8L28.3267 26.268C30.2307 25.0173 31.7521 24.392 32.8907 24.392C34.0294 24.392 35.0001 24.588 35.8027 24.98C36.6054 25.3907 37.1747 25.9507 37.5107 26.66C37.8281 27.388 37.9867 28.172 37.9867 29.012C37.9867 29.8707 37.6321 30.7107 36.9227 31.532C36.1947 32.372 35.0747 33.1187 33.5627 33.772C35.9894 33.8467 37.6414 34.6213 38.5187 36.096C38.9294 36.7867 39.1347 37.6267 39.1347 38.616C39.1347 40.184 38.6027 41.472 37.5387 42.48C36.4561 43.5067 35.0561 44.2907 33.3387 44.832C32.3494 45.1493 31.3227 45.308 30.2587 45.308C29.1947 45.308 28.1587 45.2333 27.1507 45.084L26.6747 43.432L27.1787 43.516L27.7947 43.6C28.2054 43.656 28.7934 43.684 29.5587 43.684C30.3054 43.684 30.9867 43.628 31.6027 43.516C32.7227 43.292 33.8241 42.7413 34.9067 41.864C35.9894 40.9867 36.5307 39.904 36.5307 38.616C36.5307 36.2453 35.0281 35.06 32.0227 35.06H31.9947C31.8267 35.0413 31.6401 35.032 31.4347 35.032C31.2107 35.032 30.8561 35.0973 30.3707 35.228L29.0267 35.592L28.8027 33.968L29.9507 33.828C30.3427 33.772 30.8094 33.6133 31.3507 33.352C34.0761 31.9333 35.4387 30.4027 35.4387 28.76C35.4387 27.8827 35.0561 27.1733 34.2907 26.632Z" fill="white"/>
</g>
<defs>
<clipPath id="clip0_1_3618">
<rect width="65" height="52" fill="white"/>
</clipPath>
</defs>
</svg>
