<svg width="65" height="52" viewBox="0 0 65 52" fill="none" xmlns="http://www.w3.org/2000/svg">
<g clip-path="url(#clip0_1_3608)">
<path d="M62.3838 9.76744C60.9429 9.76744 59.7675 10.9749 59.7675 12.468C59.7675 13.2226 60.0654 13.9018 60.5475 14.3923C57.6821 17.2923 52.2383 22.3591 50.0392 21.405C48.1 20.5588 47.6558 16.6993 47.5908 14.0096C47.6071 14.0096 47.6179 14.0096 47.6342 14.0096C49.0804 14.0096 50.2504 12.8022 50.2504 11.3091C50.2504 9.81596 49.0804 8.60853 47.6342 8.60853C46.1879 8.60853 45.0179 9.81596 45.0179 11.3091C45.0179 12.4841 45.7492 13.4867 46.7675 13.8533C45.5975 16.5269 43.1275 20.0952 38.6588 18.09C35.1975 16.543 33.6538 10.0262 32.9821 5.34742C34.19 5.11025 35.1054 4.01602 35.1054 2.6954C35.1054 1.2023 33.9354 -0.00512695 32.4946 -0.00512695C31.0538 -0.00512695 29.8783 1.2023 29.8783 2.6954C29.8783 4.01063 30.7938 5.11025 32.0017 5.34742C31.33 10.0262 29.7863 16.5376 26.325 18.09C21.8562 20.0898 19.3808 16.5269 18.2163 13.8533C19.2346 13.4867 19.9658 12.4841 19.9658 11.3091C19.9658 9.81596 18.7958 8.60853 17.3496 8.60853C15.9033 8.60853 14.7333 9.81596 14.7333 11.3091C14.7333 12.8022 15.9033 14.0096 17.3496 14.0096C17.3658 14.0096 17.3767 14.0096 17.3929 14.0096C17.3279 16.7047 16.8838 20.5642 14.9446 21.405C12.7508 22.3591 7.30708 17.2923 4.44167 14.3923C4.92375 13.9018 5.22167 13.2226 5.22167 12.468C5.22167 10.9749 4.05167 9.76744 2.60542 9.76744C1.15917 9.76744 0 10.9749 0 12.4626C0 13.9503 1.17 15.1631 2.61625 15.1631C3.0225 15.1631 3.40708 15.0661 3.74833 14.8936C6.10458 20.0629 11.2829 43.8717 10.7846 48.7445C10.7846 48.7445 9.50083 50.2322 10.7846 51.2295C12.0683 52.2213 32.5 51.9733 32.5 51.9733C32.5 51.9733 52.9317 52.2213 54.2154 51.2295C55.4992 50.2322 54.2154 48.7445 54.2154 48.7445C53.7171 43.8717 58.8954 20.0629 61.2517 14.8936C61.5983 15.0661 61.9775 15.1631 62.3838 15.1631C63.83 15.1631 65 13.9557 65 12.4626C65 10.9695 63.83 9.76205 62.3838 9.76205V9.76744Z" fill="#CDAD1E"/>
<path d="M31.8827 25.204V24.924H34.3187V42.228C34.3747 42.5453 34.5241 42.816 34.7667 43.04C34.9907 43.2827 35.2707 43.432 35.6067 43.488H37.6507V45H28.3547V43.488H30.5667V43.46C30.9027 43.4227 31.1921 43.2827 31.4347 43.04C31.6587 42.816 31.7987 42.5453 31.8547 42.228H31.8827V29.852C31.4534 30.0573 30.8654 30.16 30.1187 30.16H28.3267V28.48L28.7187 28.508C29.5027 28.508 30.1467 28.312 30.6507 27.92C31.1547 27.528 31.4907 27.0147 31.6587 26.38C31.8081 25.764 31.8827 25.372 31.8827 25.204Z" fill="white"/>
</g>
<defs>
<clipPath id="clip0_1_3608">
<rect width="65" height="52" fill="white"/>
</clipPath>
</defs>
</svg>
