<svg width="65" height="52" viewBox="0 0 65 52" fill="none" xmlns="http://www.w3.org/2000/svg">
<g clip-path="url(#clip0_1_3613)">
<path d="M62.3838 9.76744C60.9429 9.76744 59.7675 10.9749 59.7675 12.468C59.7675 13.2226 60.0654 13.9018 60.5475 14.3923C57.6821 17.2923 52.2383 22.3591 50.0392 21.405C48.1 20.5588 47.6558 16.6993 47.5908 14.0096C47.6071 14.0096 47.6179 14.0096 47.6342 14.0096C49.0804 14.0096 50.2504 12.8022 50.2504 11.3091C50.2504 9.81596 49.0804 8.60853 47.6342 8.60853C46.1879 8.60853 45.0179 9.81596 45.0179 11.3091C45.0179 12.4841 45.7492 13.4867 46.7675 13.8533C45.5975 16.5269 43.1275 20.0952 38.6588 18.09C35.1975 16.543 33.6538 10.0262 32.9821 5.34742C34.19 5.11025 35.1054 4.01602 35.1054 2.6954C35.1054 1.2023 33.9354 -0.00512695 32.4946 -0.00512695C31.0538 -0.00512695 29.8783 1.2023 29.8783 2.6954C29.8783 4.01063 30.7938 5.11025 32.0017 5.34742C31.33 10.0262 29.7863 16.5376 26.325 18.09C21.8562 20.0898 19.3808 16.5269 18.2163 13.8533C19.2346 13.4867 19.9658 12.4841 19.9658 11.3091C19.9658 9.81596 18.7958 8.60853 17.3496 8.60853C15.9033 8.60853 14.7333 9.81596 14.7333 11.3091C14.7333 12.8022 15.9033 14.0096 17.3496 14.0096C17.3658 14.0096 17.3767 14.0096 17.3929 14.0096C17.3279 16.7047 16.8838 20.5642 14.9446 21.405C12.7508 22.3591 7.30708 17.2923 4.44167 14.3923C4.92375 13.9018 5.22167 13.2226 5.22167 12.468C5.22167 10.9749 4.05167 9.76744 2.60542 9.76744C1.15917 9.76744 0 10.9749 0 12.4626C0 13.9503 1.17 15.1631 2.61625 15.1631C3.0225 15.1631 3.40708 15.0661 3.74833 14.8936C6.10458 20.0629 11.2829 43.8717 10.7846 48.7445C10.7846 48.7445 9.50083 50.2322 10.7846 51.2295C12.0683 52.2213 32.5 51.9733 32.5 51.9733C32.5 51.9733 52.9317 52.2213 54.2154 51.2295C55.4992 50.2322 54.2154 48.7445 54.2154 48.7445C53.7171 43.8717 58.8954 20.0629 61.2517 14.8936C61.5983 15.0661 61.9775 15.1631 62.3838 15.1631C63.83 15.1631 65 13.9557 65 12.4626C65 10.9695 63.83 9.76205 62.3838 9.76205V9.76744Z" fill="#A6A392"/>
<path d="M33.1147 24.84C36.6987 24.84 38.4907 26.5947 38.4907 30.104C38.4907 31.3173 38.2201 32.2973 37.6787 33.044C37.1374 33.7907 36.0827 34.7427 34.5147 35.9C32.9281 37.076 31.7894 38.1213 31.0987 39.036C30.1841 40.268 29.7174 41.4813 29.6987 42.676H35.7467C36.1947 42.676 36.6987 42.508 37.2587 42.172C37.8001 41.836 38.2387 41.4907 38.5747 41.136L39.0507 40.632L38.1267 45.028H27.2907V42.676C27.2907 41.22 28.0374 39.6613 29.5307 38C30.2214 37.2347 30.9587 36.5067 31.7427 35.816C33.7961 33.9493 35.0934 32.596 35.6347 31.756C35.8961 31.308 36.0267 30.692 36.0267 29.908C36.0267 29.1427 35.6627 28.48 34.9347 27.92C34.2067 27.36 33.4227 27.08 32.5827 27.08C31.7427 27.08 30.8934 27.2107 30.0347 27.472C29.1574 27.7333 28.4201 28.0413 27.8227 28.396L27.5427 28.564L27.2067 27.136C27.5241 26.7627 28.3174 26.2867 29.5867 25.708C30.8561 25.1293 32.0321 24.84 33.1147 24.84Z" fill="white"/>
</g>
<defs>
<clipPath id="clip0_1_3613">
<rect width="65" height="52" fill="white"/>
</clipPath>
</defs>
</svg>
