<svg width="16" height="20" viewBox="0 0 16 20" fill="none" xmlns="http://www.w3.org/2000/svg">
<path d="M1.70309 0.847526C0.328868 1.73878 0.0589075 4.52467 0.577736 6.79526C0.981798 8.56346 1.84086 10.9354 3.28945 13.1689C4.65219 15.2701 6.5534 17.1541 8.00309 18.2442C9.86469 19.6439 12.5185 20.5336 13.8927 19.6423C14.5876 19.1917 15.62 17.9604 15.6671 17.7394C15.6671 17.7394 15.0617 16.806 14.9288 16.6012L12.8987 13.4709C12.7478 13.2383 11.8017 13.4509 11.3211 13.7231C10.6728 14.0905 10.0757 15.0761 10.0757 15.0761C9.63117 15.3329 9.25883 15.077 8.48086 14.719C7.52473 14.279 6.44973 12.9122 5.59414 11.6742C4.8127 10.3881 4.00305 8.84909 3.99133 7.79667C3.98168 6.94034 3.89988 6.49604 4.3157 6.19487C4.3157 6.19487 5.45914 6.05167 6.05895 5.60956C6.50352 5.28175 7.08348 4.50464 6.93262 4.27198L4.90246 1.14175C4.76961 0.936902 4.16422 0.00346406 4.16422 0.00346406C3.94324 -0.0436063 2.39797 0.396862 1.70309 0.847526Z" fill="white"/>
</svg>
