<svg width="72" height="65" viewBox="0 0 72 65" fill="none" xmlns="http://www.w3.org/2000/svg">
<path d="M40.7631 53.3625L50.0286 63.851V53.3625H64.6825C67.8911 53.3625 70.4952 50.7271 70.4952 47.48V7.83761C70.4952 4.59045 67.8911 1.95508 64.6825 1.95508H7.31664C4.10801 1.95508 1.50391 4.59045 1.50391 7.83761V47.48C1.50391 50.7271 4.10801 53.3625 7.31664 53.3625H33.1193" stroke="#C9C9C9" stroke-width="2" stroke-linecap="round" stroke-linejoin="round"/>
<path d="M35.9777 38.792H35.902C34.7625 38.792 33.8358 39.7298 33.8358 40.883C33.8358 42.0362 34.7625 42.9741 35.902 42.9741H35.9777C37.1172 42.9741 38.0439 42.0362 38.0439 40.883C38.0439 39.7298 37.1172 38.792 35.9777 38.792Z" fill="#C9C9C9"/>
<path d="M36.8951 12.3652C34.1953 12.3652 31.7035 13.1643 30.0676 14.552C28.7531 15.6238 27.9824 16.7243 27.33 18.4852C27.1503 18.9637 27.1928 19.4948 27.4387 19.9446C27.6846 20.3848 28.1054 20.6911 28.6302 20.7916C29.4718 20.9543 30.2993 20.4566 30.5593 19.6288C30.843 18.7292 31.0983 18.2268 31.5759 17.6335C32.7816 16.1023 34.583 15.3271 36.9329 15.3271C40.3041 15.3271 42.6635 17.1933 42.6635 19.8633C42.6635 20.9973 42.2758 21.9543 41.4814 22.7917C40.9472 23.3324 40.3845 23.7774 38.9755 24.7822C36.9802 26.2129 36.4317 26.6292 35.6705 27.6819C34.6965 29.0648 34.2615 30.5003 34.2615 32.3425C34.2615 32.8545 34.2568 33.199 34.2379 33.5004C34.2142 33.9694 34.3797 34.4335 34.7012 34.778C35.0227 35.1225 35.4577 35.3139 35.9258 35.3139C36.3939 35.3139 36.8384 35.1178 37.1551 34.778C37.4719 34.4383 37.6421 33.9742 37.6138 33.5052C37.5949 33.2086 37.5901 32.9262 37.5901 32.6439C37.5901 31.3807 37.8927 30.3089 38.498 29.4619C38.9424 28.8207 39.524 28.2513 41.6517 26.7536C43.2829 25.5909 43.8692 25.0837 44.4933 24.2942C45.5004 23.0788 46.0347 21.5476 46.0347 19.8633C46.0347 15.3798 42.3656 12.3652 36.8998 12.3652H36.8951Z" fill="#C9C9C9"/>
</svg>
